<mxfile host="app.diagrams.net" modified="2021-10-21T21:43:07.468Z" agent="5.0 (Macintosh)" etag="awZ_wkxTIvJShBZsMQwu" version="15.5.8" type="github">
  <diagram id="kgpKYQtTHZ0yAKxKKP6v" name="Page-1">
    <mxGraphModel dx="1298" dy="711" grid="1" gridSize="10" guides="1" tooltips="1" connect="1" arrows="1" fold="1" page="1" pageScale="1" pageWidth="850" pageHeight="1100" math="0" shadow="0">
      <root>
        <mxCell id="0" />
        <mxCell id="1" parent="0" />
        <mxCell id="3nuBFxr9cyL0pnOWT2aG-5" value="LicenseManager" style="shape=umlLifeline;perimeter=lifelinePerimeter;container=1;collapsible=0;recursiveResize=0;rounded=0;shadow=0;strokeWidth=1;fontSize=16;fontFamily=Comic Sans MS;" parent="1" vertex="1">
          <mxGeometry x="520" y="100" width="120" height="570" as="geometry" />
        </mxCell>
        <mxCell id="3nuBFxr9cyL0pnOWT2aG-6" value="" style="points=[];perimeter=orthogonalPerimeter;rounded=0;shadow=0;strokeWidth=1;" parent="3nuBFxr9cyL0pnOWT2aG-5" vertex="1">
          <mxGeometry x="55" y="100" width="10" height="80" as="geometry" />
        </mxCell>
        <mxCell id="ZiFEk9Iwz0tGiNnRQt5A-19" value="" style="html=1;points=[];perimeter=orthogonalPerimeter;labelBackgroundColor=#E6E6E6;fontFamily=Comic Sans MS;fontSize=14;" vertex="1" parent="3nuBFxr9cyL0pnOWT2aG-5">
          <mxGeometry x="55" y="220" width="10" height="80" as="geometry" />
        </mxCell>
        <mxCell id="ZiFEk9Iwz0tGiNnRQt5A-24" style="edgeStyle=orthogonalEdgeStyle;rounded=0;orthogonalLoop=1;jettySize=auto;html=1;entryX=1;entryY=0.888;entryDx=0;entryDy=0;entryPerimeter=0;fontFamily=Comic Sans MS;fontSize=14;endArrow=classic;endFill=1;" edge="1" parent="3nuBFxr9cyL0pnOWT2aG-5" source="ZiFEk9Iwz0tGiNnRQt5A-19" target="ZiFEk9Iwz0tGiNnRQt5A-19">
          <mxGeometry relative="1" as="geometry">
            <Array as="points">
              <mxPoint x="85" y="250" />
              <mxPoint x="85" y="291" />
            </Array>
          </mxGeometry>
        </mxCell>
        <mxCell id="ZiFEk9Iwz0tGiNnRQt5A-25" value="create asset" style="edgeLabel;html=1;align=center;verticalAlign=middle;resizable=0;points=[];fontSize=14;fontFamily=Comic Sans MS;" vertex="1" connectable="0" parent="ZiFEk9Iwz0tGiNnRQt5A-24">
          <mxGeometry x="-0.037" y="2" relative="1" as="geometry">
            <mxPoint x="23" as="offset" />
          </mxGeometry>
        </mxCell>
        <mxCell id="ZiFEk9Iwz0tGiNnRQt5A-27" value="" style="html=1;points=[];perimeter=orthogonalPerimeter;labelBackgroundColor=#E6E6E6;fontFamily=Comic Sans MS;fontSize=14;" vertex="1" parent="3nuBFxr9cyL0pnOWT2aG-5">
          <mxGeometry x="55" y="330" width="10" height="200" as="geometry" />
        </mxCell>
        <mxCell id="ZiFEk9Iwz0tGiNnRQt5A-4" value="&lt;font style=&quot;font-size: 16px&quot; face=&quot;Comic Sans MS&quot;&gt;License Seller&lt;/font&gt;" style="shape=umlLifeline;participant=umlActor;perimeter=lifelinePerimeter;whiteSpace=wrap;html=1;container=1;collapsible=0;recursiveResize=0;verticalAlign=top;spacingTop=36;outlineConnect=0;" vertex="1" parent="1">
          <mxGeometry x="410" y="90" width="60" height="580" as="geometry" />
        </mxCell>
        <mxCell id="ZiFEk9Iwz0tGiNnRQt5A-9" value="" style="html=1;points=[];perimeter=orthogonalPerimeter;labelBackgroundColor=#E6E6E6;fontFamily=Courier New;fontSize=13;" vertex="1" parent="ZiFEk9Iwz0tGiNnRQt5A-4">
          <mxGeometry x="25" y="110" width="10" height="220" as="geometry" />
        </mxCell>
        <mxCell id="ZiFEk9Iwz0tGiNnRQt5A-5" value="&lt;div style=&quot;font-size: 16px&quot;&gt;&lt;font style=&quot;font-size: 16px&quot; face=&quot;Comic Sans MS&quot;&gt;License Buyer&lt;/font&gt;&lt;/div&gt;&lt;div&gt;&lt;br&gt;&lt;/div&gt;" style="shape=umlLifeline;participant=umlActor;perimeter=lifelinePerimeter;whiteSpace=wrap;html=1;container=1;collapsible=0;recursiveResize=0;verticalAlign=top;spacingTop=36;outlineConnect=0;" vertex="1" parent="1">
          <mxGeometry x="730" y="90" width="60" height="610" as="geometry" />
        </mxCell>
        <mxCell id="ZiFEk9Iwz0tGiNnRQt5A-26" value="" style="html=1;points=[];perimeter=orthogonalPerimeter;labelBackgroundColor=#E6E6E6;fontFamily=Comic Sans MS;fontSize=14;" vertex="1" parent="ZiFEk9Iwz0tGiNnRQt5A-5">
          <mxGeometry x="25" y="340" width="10" height="210" as="geometry" />
        </mxCell>
        <mxCell id="ZiFEk9Iwz0tGiNnRQt5A-6" value="&lt;p style=&quot;margin: 4px 0px 0px ; text-align: center ; text-decoration: underline ; font-size: 16px&quot;&gt;&lt;b&gt;&lt;font style=&quot;font-size: 16px&quot; face=&quot;Comic Sans MS&quot;&gt;License Data&lt;/font&gt;&lt;br&gt;&lt;/b&gt;&lt;/p&gt;&lt;blockquote style=&quot;font-size: 13px&quot;&gt;&lt;font style=&quot;font-size: 13px&quot; face=&quot;Courier New&quot;&gt;unit_name=&quot;ROW&quot;&lt;br&gt;asset_name=&quot;ALICE1&quot;&lt;br&gt;decimals=0&lt;br&gt;price=1000&lt;br&gt;total_amount=100&lt;br&gt;url=&quot;http://ipfs_url&quot;&lt;/font&gt;&lt;br&gt;&lt;/blockquote&gt;&lt;br&gt;&lt;hr&gt;" style="verticalAlign=top;align=left;overflow=fill;fontSize=12;fontFamily=Helvetica;html=1;" vertex="1" parent="1">
          <mxGeometry x="30" y="360" width="210" height="150" as="geometry" />
        </mxCell>
        <mxCell id="ZiFEk9Iwz0tGiNnRQt5A-10" value="" style="html=1;verticalAlign=bottom;startArrow=oval;startFill=1;endArrow=classic;startSize=8;rounded=0;fontFamily=Courier New;fontSize=13;endFill=1;entryX=-0.2;entryY=0.364;entryDx=0;entryDy=0;entryPerimeter=0;" edge="1" parent="1" source="ZiFEk9Iwz0tGiNnRQt5A-6" target="ZiFEk9Iwz0tGiNnRQt5A-9">
          <mxGeometry x="0.0016" y="10" width="60" relative="1" as="geometry">
            <mxPoint x="210" y="190" as="sourcePoint" />
            <mxPoint x="340" y="250" as="targetPoint" />
            <Array as="points">
              <mxPoint x="230" y="280" />
              <mxPoint x="290" y="280" />
              <mxPoint x="400" y="280" />
            </Array>
            <mxPoint as="offset" />
          </mxGeometry>
        </mxCell>
        <mxCell id="ZiFEk9Iwz0tGiNnRQt5A-12" value="&lt;div&gt;&lt;font face=&quot;Comic Sans MS&quot;&gt;asset parameters&lt;/font&gt;&lt;/div&gt;" style="edgeLabel;html=1;align=center;verticalAlign=middle;resizable=0;points=[];fontSize=13;fontFamily=Courier New;" vertex="1" connectable="0" parent="ZiFEk9Iwz0tGiNnRQt5A-10">
          <mxGeometry x="0.0724" y="4" relative="1" as="geometry">
            <mxPoint as="offset" />
          </mxGeometry>
        </mxCell>
        <mxCell id="ZiFEk9Iwz0tGiNnRQt5A-13" value="&lt;div style=&quot;font-size: 14px&quot;&gt;&lt;font style=&quot;font-size: 14px&quot;&gt;create&lt;/font&gt;&lt;/div&gt;" style="edgeStyle=orthogonalEdgeStyle;rounded=0;orthogonalLoop=1;jettySize=auto;html=1;fontFamily=Comic Sans MS;fontSize=15;endArrow=classic;endFill=1;" edge="1" parent="1">
          <mxGeometry x="0.0294" y="10" relative="1" as="geometry">
            <mxPoint x="440" y="220" as="sourcePoint" />
            <mxPoint x="576" y="220" as="targetPoint" />
            <Array as="points">
              <mxPoint x="576" y="220" />
            </Array>
            <mxPoint as="offset" />
          </mxGeometry>
        </mxCell>
        <mxCell id="ZiFEk9Iwz0tGiNnRQt5A-18" value="&lt;font style=&quot;font-size: 14px&quot;&gt;app id&lt;br&gt;&lt;/font&gt;" style="html=1;verticalAlign=bottom;endArrow=open;dashed=1;endSize=8;rounded=0;fontFamily=Comic Sans MS;fontSize=14;exitX=0;exitY=0.688;exitDx=0;exitDy=0;exitPerimeter=0;" edge="1" parent="1" source="3nuBFxr9cyL0pnOWT2aG-6" target="ZiFEk9Iwz0tGiNnRQt5A-4">
          <mxGeometry relative="1" as="geometry">
            <mxPoint x="520" y="260" as="sourcePoint" />
            <mxPoint x="440" y="260" as="targetPoint" />
          </mxGeometry>
        </mxCell>
        <mxCell id="ZiFEk9Iwz0tGiNnRQt5A-20" style="edgeStyle=orthogonalEdgeStyle;rounded=0;orthogonalLoop=1;jettySize=auto;html=1;entryX=-0.1;entryY=0.163;entryDx=0;entryDy=0;entryPerimeter=0;fontFamily=Comic Sans MS;fontSize=14;endArrow=classic;endFill=1;" edge="1" parent="1" source="ZiFEk9Iwz0tGiNnRQt5A-9" target="ZiFEk9Iwz0tGiNnRQt5A-19">
          <mxGeometry relative="1" as="geometry">
            <Array as="points">
              <mxPoint x="480" y="333" />
              <mxPoint x="480" y="333" />
            </Array>
          </mxGeometry>
        </mxCell>
        <mxCell id="ZiFEk9Iwz0tGiNnRQt5A-21" value="setup details" style="edgeLabel;html=1;align=center;verticalAlign=middle;resizable=0;points=[];fontSize=14;fontFamily=Comic Sans MS;" vertex="1" connectable="0" parent="ZiFEk9Iwz0tGiNnRQt5A-20">
          <mxGeometry x="0.3334" y="-4" relative="1" as="geometry">
            <mxPoint x="-21" y="-17" as="offset" />
          </mxGeometry>
        </mxCell>
        <mxCell id="ZiFEk9Iwz0tGiNnRQt5A-28" style="edgeStyle=orthogonalEdgeStyle;rounded=0;orthogonalLoop=1;jettySize=auto;html=1;fontFamily=Comic Sans MS;fontSize=14;endArrow=classic;endFill=1;" edge="1" parent="1" source="ZiFEk9Iwz0tGiNnRQt5A-26" target="ZiFEk9Iwz0tGiNnRQt5A-27">
          <mxGeometry relative="1" as="geometry">
            <Array as="points">
              <mxPoint x="680" y="450" />
              <mxPoint x="680" y="450" />
            </Array>
          </mxGeometry>
        </mxCell>
        <mxCell id="ZiFEk9Iwz0tGiNnRQt5A-29" value="opt-in" style="edgeLabel;html=1;align=center;verticalAlign=middle;resizable=0;points=[];fontSize=14;fontFamily=Comic Sans MS;" vertex="1" connectable="0" parent="ZiFEk9Iwz0tGiNnRQt5A-28">
          <mxGeometry x="-0.2923" y="2" relative="1" as="geometry">
            <mxPoint x="-19" as="offset" />
          </mxGeometry>
        </mxCell>
        <mxCell id="ZiFEk9Iwz0tGiNnRQt5A-30" style="edgeStyle=orthogonalEdgeStyle;rounded=0;orthogonalLoop=1;jettySize=auto;html=1;entryX=1.1;entryY=0.4;entryDx=0;entryDy=0;entryPerimeter=0;fontFamily=Comic Sans MS;fontSize=14;endArrow=classic;endFill=1;" edge="1" parent="1" source="ZiFEk9Iwz0tGiNnRQt5A-26" target="ZiFEk9Iwz0tGiNnRQt5A-27">
          <mxGeometry relative="1" as="geometry">
            <Array as="points">
              <mxPoint x="710" y="510" />
              <mxPoint x="710" y="510" />
            </Array>
          </mxGeometry>
        </mxCell>
        <mxCell id="ZiFEk9Iwz0tGiNnRQt5A-31" value="&lt;div&gt;buy license&lt;/div&gt;" style="edgeLabel;html=1;align=center;verticalAlign=middle;resizable=0;points=[];fontSize=14;fontFamily=Comic Sans MS;" vertex="1" connectable="0" parent="ZiFEk9Iwz0tGiNnRQt5A-30">
          <mxGeometry x="0.3488" y="-3" relative="1" as="geometry">
            <mxPoint x="22" y="3" as="offset" />
          </mxGeometry>
        </mxCell>
        <mxCell id="ZiFEk9Iwz0tGiNnRQt5A-32" value="&lt;div style=&quot;font-size: 14px&quot;&gt;&lt;font style=&quot;font-size: 14px&quot;&gt;send license units&lt;br&gt;&lt;/font&gt;&lt;/div&gt;" style="edgeStyle=orthogonalEdgeStyle;rounded=0;orthogonalLoop=1;jettySize=auto;html=1;entryX=0.1;entryY=0.629;entryDx=0;entryDy=0;entryPerimeter=0;fontFamily=Comic Sans MS;fontSize=16;endArrow=classic;endFill=1;" edge="1" parent="1" source="ZiFEk9Iwz0tGiNnRQt5A-27" target="ZiFEk9Iwz0tGiNnRQt5A-26">
          <mxGeometry relative="1" as="geometry">
            <Array as="points">
              <mxPoint x="700" y="559" />
              <mxPoint x="700" y="562" />
            </Array>
          </mxGeometry>
        </mxCell>
        <mxCell id="ZiFEk9Iwz0tGiNnRQt5A-33" style="edgeStyle=orthogonalEdgeStyle;rounded=0;orthogonalLoop=1;jettySize=auto;html=1;entryX=0.1;entryY=0.795;entryDx=0;entryDy=0;entryPerimeter=0;fontFamily=Comic Sans MS;fontSize=14;endArrow=classic;endFill=1;exitX=1.1;exitY=0.84;exitDx=0;exitDy=0;exitPerimeter=0;" edge="1" parent="1" source="ZiFEk9Iwz0tGiNnRQt5A-27" target="ZiFEk9Iwz0tGiNnRQt5A-26">
          <mxGeometry relative="1" as="geometry" />
        </mxCell>
        <mxCell id="ZiFEk9Iwz0tGiNnRQt5A-34" value="send rest money back" style="edgeLabel;html=1;align=center;verticalAlign=middle;resizable=0;points=[];fontSize=14;fontFamily=Comic Sans MS;" vertex="1" connectable="0" parent="ZiFEk9Iwz0tGiNnRQt5A-33">
          <mxGeometry x="-0.2632" y="-4" relative="1" as="geometry">
            <mxPoint x="21" y="8" as="offset" />
          </mxGeometry>
        </mxCell>
      </root>
    </mxGraphModel>
  </diagram>
</mxfile>
